<svg fill="#FFFFFF" width="800px" height="800px" viewBox="0 0 512 512" xmlns="http://www.w3.org/2000/svg">

<g id="SVGRepo_bgCarrier" stroke-width="0"/>

<g id="SVGRepo_tracerCarrier" stroke-linecap="round" stroke-linejoin="round"/>

<g id="SVGRepo_iconCarrier">

<title>ionicons-v5-k</title>

<path d="M272,41.69V188a4,4,0,0,0,4,4H422.31a2,2,0,0,0,1.42-3.41L275.41,40.27A2,2,0,0,0,272,41.69Z"/>

<path d="M248,224a8,8,0,0,1-8-8V32H92A12,12,0,0,0,80,44V468a12,12,0,0,0,12,12H420a12,12,0,0,0,12-12V224ZM352,384H160V352H352Zm0-80H160V272H352Z"/>

</g>

</svg>